<svg width="296" height="23" viewBox="0 0 296 23" fill="none" xmlns="http://www.w3.org/2000/svg">
<g clip-path="url(#clip0_42_2043)">
<path d="M2.7732 7.04961V10.5765H5.82539C7.24531 10.5765 8.39456 11.0012 9.27733 11.8548C10.1601 12.7084 10.6015 13.8494 10.6015 15.2818C10.6015 16.6559 10.1643 17.776 9.28982 18.6338C8.41538 19.4957 7.28278 19.9246 5.89202 19.9246H0V4.66365H9.3731V7.04961H2.7732ZM2.7732 17.5428H5.39651C6.15435 17.5428 6.74147 17.3429 7.15786 16.939C7.57426 16.5393 7.78246 15.9855 7.78246 15.2818C7.78246 14.5781 7.56593 14.0159 7.13704 13.5954C6.70816 13.1748 6.11271 12.9624 5.3507 12.9624H2.76904V17.5428H2.7732Z" fill="white"/>
<path d="M21.9067 14.6613H18.7879V19.9288H16.0146V4.66365H21.9067C23.3391 4.66365 24.5091 5.12169 25.4127 6.03776C26.3163 6.95383 26.766 8.15306 26.766 9.6271C26.766 11.1053 26.3163 12.3129 25.4127 13.2498C24.5091 14.1908 23.3391 14.6613 21.9067 14.6613ZM21.432 7.04961H18.7879V12.2504H21.3903C22.194 12.2504 22.8186 12.0131 23.2724 11.5425C23.7222 11.0678 23.9512 10.4307 23.9512 9.6271C23.9512 8.84011 23.7263 8.21135 23.2724 7.74499C22.8186 7.28279 22.2065 7.04961 21.432 7.04961Z" fill="white"/>
<path d="M38.9332 6.94549L41.1901 4.68861C42.4934 5.03422 43.6343 5.6838 44.6087 6.64568C46.0994 8.12389 46.8364 9.97269 46.8239 12.1921C46.8114 14.4573 46.0661 16.3561 44.5879 17.8884C43.1097 19.4207 41.2275 20.1869 38.9332 20.1869C36.6388 20.1869 34.7526 19.4207 33.2702 17.8884C31.7878 16.3561 31.0466 14.4573 31.0466 12.1921C31.0466 9.98518 31.792 8.13638 33.2827 6.64568C34.2446 5.6838 35.373 5.03422 36.6805 4.68861L38.9332 6.94549ZM35.3438 16.0812C36.2891 17.1264 37.4883 17.6511 38.9332 17.6511C40.3823 17.6511 41.5815 17.1306 42.535 16.0937C43.4886 15.0569 43.9633 13.7536 43.9633 12.1921C43.9633 10.7014 43.4886 9.45636 42.535 8.45284C41.5815 7.44933 40.3823 6.94965 38.9332 6.94965C37.4841 6.94965 36.2849 7.45349 35.3314 8.45284C34.3778 9.45636 33.9031 10.7014 33.9031 12.1921C33.9031 13.7494 34.382 15.0486 35.3438 16.0812Z" fill="white"/>
<path d="M55.1436 19.9288H52.3704V4.66365H55.1436V11.1345H62.1307V4.66365H64.8831V19.9288H62.1307V13.5204H55.1436V19.9288Z" fill="white"/>
<path d="M74.1229 19.9288H71.3497V4.66365H74.1229V11.1345H81.1101V4.66365H83.8625V19.9288H81.1101V13.5204H74.1229V19.9288Z" fill="white"/>
<path d="M98.8901 11.1345L93.0855 19.9288H90.3331V4.66365H93.1063V13.4788L92.9564 15.8439H92.9981C93.4853 14.8529 93.9141 14.0576 94.2889 13.458L100.052 4.66365H102.804V19.9288H100.052V11.1345L100.202 8.76933H100.16C99.6854 9.74369 99.2607 10.5348 98.8901 11.1345Z" fill="white"/>
<path d="M118.665 4.66365H121.438V17.5428H123.245V22.9393H120.772V19.9288H109.292V4.66365H112.065V17.5428H118.665V4.66365V4.66365Z" fill="white"/>
<path d="M136.982 4.66365H139.993L135.67 11.9298V11.9714L140.251 19.9246H137.111L133.393 13.2622H131.415V19.9246H128.642V4.66365H131.415V10.8763H133.393L136.982 4.66365Z" fill="white"/>
<path d="M153.688 11.1345L147.883 19.9288H145.131V4.66365H147.904V13.4788L147.754 15.8439H147.796C148.283 14.8529 148.712 14.0576 149.087 13.458L154.85 4.66365H157.602V19.9288H154.85V11.1345L155 8.76933H154.958C154.483 9.74369 154.059 10.5348 153.688 11.1345Z" fill="white"/>
<path d="M166.759 15.8439C167.246 14.8529 167.675 14.0575 168.05 13.4579L173.813 4.66362H176.565V19.9287H173.813V11.1344L173.962 8.7693H173.921C173.446 9.74367 173.026 10.5307 172.651 11.1344L166.846 19.9287H164.094V4.66362H166.867V13.4787L166.717 15.8439H166.759V15.8439ZM174.691 1.8696H165.964V-2.28882e-05H174.691V1.8696Z" fill="white"/>
<path d="M203.947 4.4055C206.141 4.4055 207.978 5.15502 209.46 6.65405C210.942 8.15308 211.684 9.99772 211.684 12.188C211.684 14.4365 210.942 16.3353 209.46 17.8718C207.978 19.4125 206.137 20.1828 203.947 20.1828C201.982 20.1828 200.303 19.554 198.904 18.3007C197.505 17.0473 196.664 15.4525 196.377 13.5163H193.97V19.9205H191.197V4.66367H193.97V11.1345H196.335C196.564 9.19823 197.389 7.5951 198.809 6.32093C200.229 5.04675 201.94 4.4055 203.947 4.4055ZM200.508 16.0813C201.44 17.1264 202.585 17.6511 203.947 17.6511C205.309 17.6511 206.462 17.1264 207.407 16.0729C208.352 15.0195 208.827 13.7245 208.827 12.1921C208.827 10.7181 208.352 9.47722 207.407 8.4737C206.462 7.47018 205.309 6.97051 203.947 6.97051C202.585 6.97051 201.436 7.47435 200.495 8.4737C199.558 9.47722 199.088 10.7181 199.088 12.1921C199.088 13.737 199.562 15.0361 200.508 16.0813Z" fill="white"/>
<path d="M222.781 19.9288H217.255V4.66365H222.693C224.113 4.66365 225.254 5.00926 226.12 5.70464C226.986 6.40003 227.419 7.3619 227.419 8.59444C227.419 9.31064 227.253 9.95606 226.924 10.5307C226.595 11.1053 226.141 11.5467 225.571 11.8632V11.9048C226.374 12.1338 226.986 12.5877 227.407 13.2581C227.827 13.9326 228.04 14.678 228.04 15.4941C228.04 16.9432 227.536 18.0425 226.537 18.792C225.537 19.554 224.284 19.9288 222.781 19.9288ZM224.605 8.94421C224.605 8.38624 224.438 7.9282 224.109 7.5701C223.763 7.22449 223.285 7.05377 222.668 7.05377H220.024V10.9013H222.71C223.297 10.9013 223.759 10.7181 224.097 10.3516C224.438 9.9852 224.605 9.51468 224.605 8.94421ZM224.63 16.9182C225.017 16.5185 225.208 15.9855 225.208 15.3276C225.208 14.6822 225.013 14.1575 224.617 13.7494C224.221 13.3414 223.68 13.1373 222.993 13.1373H220.028V17.5428H222.993C223.684 17.5428 224.226 17.3346 224.63 16.9182Z" fill="white"/>
<path d="M236.41 11.0512H241.548V13.4371H236.41V17.5428H243.118V19.9288H233.636V4.66365H242.772V7.04961H236.41V11.0512V11.0512Z" fill="white"/>
<path d="M259.819 4.66365V19.9288H257.046V7.04961H253.028V8.87759C253.028 12.6335 252.562 15.4233 251.629 17.2513C250.696 19.0793 249.185 20.0287 247.094 20.0995V17.5636C248.239 17.4054 249.076 16.6434 249.597 15.2734C250.122 13.9035 250.38 11.7591 250.38 8.83595V4.66365H259.819Z" fill="white"/>
<path d="M274.847 11.1345L269.042 19.9288H266.29V4.66365H269.063V13.4788L268.913 15.8439H268.955C269.442 14.8529 269.871 14.0576 270.246 13.458L276.009 4.66365H278.761V19.9288H276.009V11.1345L276.159 8.76933H276.117C275.642 9.74369 275.218 10.5348 274.847 11.1345Z" fill="white"/>
<path d="M291.141 14.6613H288.022V19.9288H285.249V4.66365H291.141C292.573 4.66365 293.743 5.12169 294.647 6.03776C295.55 6.95383 296 8.15306 296 9.6271C296 11.1053 295.55 12.3129 294.647 13.2498C293.743 14.1908 292.573 14.6613 291.141 14.6613ZM290.67 7.04961H288.026V12.2504H290.628C291.432 12.2504 292.057 12.0131 292.511 11.5425C292.964 11.072 293.189 10.4307 293.189 9.6271C293.189 8.84011 292.964 8.21135 292.511 7.74499C292.057 7.28279 291.44 7.04961 290.67 7.04961Z" fill="white"/>
</g>
<defs>
<clipPath id="clip0_42_2043">
<rect width="296" height="22.9393" fill="white"/>
</clipPath>
</defs>
</svg>
