<svg width="300" height="133" viewBox="0 0 300 133" fill="none" xmlns="http://www.w3.org/2000/svg">
<g opacity="0.3" clip-path="url(#clip0_42_36)">
<path d="M309.689 180.79C309.851 179.984 310.013 179.18 310.083 178.828C309.349 177.555 308.457 176.615 308.245 175.539C306.74 167.957 302.803 161.528 298.551 155.321C295.742 151.219 292.389 147.482 289.204 143.643C286.718 140.649 284.242 137.63 281.537 134.836C278.324 131.515 274.866 128.426 271.526 125.228C270.196 123.952 268.901 122.641 267.573 121.361C265.91 119.758 264.227 118.171 262.357 116.393C260.935 118.437 259.465 120.263 258.309 122.269C255.556 127.051 253.026 131.956 250.267 136.734C248.632 139.567 248.235 142.726 247.501 145.789C246.955 148.075 245.917 150.057 244.596 151.92C243.625 153.292 241.529 153.663 239.977 152.879C238.532 152.152 237.856 150.041 238.339 148.218C239.51 143.818 240.704 139.42 241.72 134.982C242.714 130.642 243.434 126.238 244.393 121.888C245.777 115.599 247.276 109.335 248.708 103.055C248.787 102.705 248.717 102.321 248.508 101.864C247.247 104.614 245.99 107.36 244.727 110.109C241.187 117.824 237.656 125.543 234.084 133.242C233.814 133.826 233.259 134.28 232.833 134.791C232.7 134.95 232.446 135.077 232.424 135.242C231.941 138.516 229.846 140.957 228.077 143.542C227.258 144.738 226.201 145.827 225.074 146.748C223.489 148.037 221.016 146.659 220.143 144.465C218.409 140.122 219.486 135.957 220.565 131.75C223.569 120.022 226.62 108.303 229.544 96.5524C230.795 91.5169 231.551 86.3481 232.935 81.3539C234.475 75.8073 236.472 70.3876 238.291 64.9172C238.399 64.5965 238.681 64.3298 239.053 63.7933C239.129 64.7362 239.18 65.3934 239.266 66.4507C239.821 65.0855 240.402 64.2822 239.986 63.0027C239.767 62.3296 240.586 61.2501 241.069 60.4342C241.637 59.4753 242.491 59.9389 243.374 59.8754C245.654 59.7103 245.514 61.2216 246.066 62.4725C246.254 62.8979 247.143 62.9773 247.441 63.4028C248.263 64.5711 249.273 65.7586 249.606 67.0857C250.349 70.0447 250.984 73.08 251.175 76.1121C251.359 79.014 250.965 81.9571 249.127 84.4622C248.152 85.7925 246.632 85.948 245.841 84.5003C245.089 83.1223 244.561 81.5253 244.352 79.9696C243.961 77.0645 243.885 74.1182 243.653 71.1877C243.631 70.8956 243.441 70.6162 242.964 70.2416C241.822 73.4832 240.596 76.6994 239.558 79.976C238.523 83.2462 237.605 86.5608 236.767 89.885C236.011 92.8758 235.434 95.9078 234.776 98.9209C233.856 103.134 233.03 107.369 231.989 111.551C230.703 116.72 229.144 121.822 227.887 126.994C227.337 129.254 227.245 131.626 227.128 134.099C227.864 132.988 228.725 131.94 229.319 130.759C232.805 123.8 236.3 116.843 239.653 109.82C242.777 103.28 245.638 96.6158 248.775 90.0818C252.353 82.6366 254.966 74.9183 256.725 66.8317C258.684 57.8085 261.084 48.8806 263.316 39.9177C264.907 33.5265 266.494 27.1322 268.177 20.7664C268.532 19.4171 269.415 18.2138 269.847 16.8771C270.234 15.6802 270.339 14.3943 270.555 13.1434C270.587 12.9561 270.456 12.7179 270.526 12.5624C272.225 8.88895 272.761 4.59008 276.165 1.84693C276.946 1.21829 277.981 0.910317 278.899 0.453125H279.851C280.213 0.72617 280.603 0.970641 280.937 1.27861C282.959 3.14548 284.632 5.11712 284.645 8.16189C284.664 12.5878 282.997 16.5501 281.473 20.5188C278.835 27.383 275.892 34.1266 273.177 40.9622C269.945 49.1028 266.815 57.2846 263.662 65.4569C262.671 68.0255 261.547 70.5718 260.846 73.2229C259.931 76.6804 259.369 80.23 258.668 83.7414C258.28 85.6877 257.922 87.6371 257.509 89.7929C259.046 89.3198 260.271 89.0531 261.405 88.5705C268.342 85.6115 275.266 82.627 282.172 79.6013C285.89 77.9726 289.569 76.2549 293.249 74.5436C296.075 73.2292 299.002 72.0735 301.653 70.467C305.038 68.4128 308.124 65.8792 311.467 63.7457C313.055 62.7328 314.931 62.1741 316.677 61.4121V70.9369C316.522 70.9528 316.35 70.9305 316.214 70.9909C312.94 72.5021 309.676 74.0388 306.397 75.5406C304.187 76.5534 301.631 77.1122 299.799 78.5822C293.694 83.4811 287.772 88.6182 281.931 93.8346C279.181 96.2888 276.714 99.0701 274.238 101.81C271.758 104.55 269.424 107.423 267.002 110.268C267.415 110.706 267.685 111.024 267.986 111.313C272.73 115.859 277.511 120.371 282.213 124.959C284.559 127.248 286.763 129.686 289.042 132.042C296.935 140.195 304.482 148.631 310.321 158.432C312.591 162.242 314.613 166.188 315.766 170.513C316.087 171.713 316.369 172.919 316.671 174.123V174.44C316.268 175.196 315.728 175.916 315.499 176.723C315.29 177.459 315.553 178.333 315.337 179.066C315.172 179.628 314.585 180.063 314.188 180.555C314.061 180.45 313.934 180.346 313.807 180.241C313.975 179.625 314.147 179.012 314.315 178.396C314.21 178.329 314.105 178.26 314.004 178.193C313.324 178.98 312.648 179.768 311.969 180.555C311.873 180.485 311.778 180.412 311.686 180.342C311.721 179.952 311.756 179.564 311.794 179.152C311.254 179.755 310.791 180.272 310.324 180.787H309.689V180.79ZM280.435 87.4815C279.857 87.7482 278.845 88.2403 277.81 88.6848C274.695 90.0215 271.587 91.3645 268.447 92.6408C267.643 92.9678 267.132 94.168 265.856 93.4123C265.583 93.2504 264.665 94.3712 263.954 94.7204C261.903 95.7237 259.82 96.6698 257.718 97.562C256.595 98.0382 256.356 98.597 257.198 99.5432C258.979 101.547 260.804 103.515 262.478 105.604C263.138 106.43 263.49 106.265 264.04 105.649C265.056 104.509 266.059 103.356 267.129 102.27C267.361 102.035 267.85 102.055 268.221 101.956C268.932 101.502 269.494 100.762 270.05 100.016C271.653 97.8668 273.482 95.9205 274.952 93.6314C276.486 91.2407 278.756 89.323 280.438 87.4847L280.435 87.4815ZM258.617 112.624C257.264 111.173 255.972 109.782 254.677 108.395C254.483 108.506 254.286 108.614 254.093 108.725C253.305 113.23 252.518 117.732 251.731 122.238C251.854 122.279 251.981 122.32 252.105 122.365C254.255 119.148 256.407 115.929 258.617 112.624V112.624ZM271.06 33.2249C274.247 25.0748 278.384 17.1946 278.759 8.15237C274.454 15.9596 273.698 24.8716 271.06 33.2249Z" fill="white"/>
<path d="M0.449343 77.9217C2.07809 75.8326 3.45602 73.464 5.38638 71.7083C9.65668 67.8253 14.5652 64.7901 19.6419 62.0247C23.0391 60.1769 26.2743 58.0402 29.6747 56.1955C33.2497 54.2588 36.9168 52.4967 40.568 50.7029C45.3907 48.328 50.2452 46.0166 55.0489 43.6069C55.5092 43.3751 56.0014 42.6258 55.9855 42.1305C55.8045 36.0187 55.5219 29.9101 55.2965 23.7984C55.2648 22.9221 55.3442 22.0331 55.4553 21.16C55.6267 19.817 55.8585 18.4835 56.0839 17.15C56.1506 16.7595 56.2935 16.3785 56.4014 15.9944C56.5919 16.0102 56.7824 16.0229 56.9729 16.0388C57.1062 17.6041 57.2364 19.1661 57.3698 20.7314C57.8619 18.7661 57.1634 16.5658 58.8334 14.8069C60.9035 23.0935 61.3638 31.5548 61.5226 40.3621C63.5768 39.4921 65.2659 38.7492 66.974 38.0571C71.5967 36.1775 76.2385 34.3519 80.8485 32.4469C85.8871 30.3642 90.8464 28.0845 95.9326 26.1351C100.524 24.3762 105.254 22.9761 109.902 21.3632C112.636 20.4139 115.287 19.2011 118.056 18.3787C122.005 17.2072 126.012 16.1976 130.032 15.2832C133.559 14.4831 137.128 13.8703 140.693 13.2512C142.246 12.9813 143.827 12.8893 145.401 12.7559C147.148 12.6099 149.037 14.1973 148.634 15.788C148.272 17.2167 147.545 18.8677 146.437 19.7154C144.693 21.052 142.557 21.9474 140.48 22.7602C138.169 23.665 135.696 24.1571 133.378 25.0493C131.908 25.6144 130.632 25.1287 129.755 24.3413C129.035 23.6904 128.958 22.322 128.501 20.9917C127.269 21.2775 125.51 21.5505 123.837 22.0934C114.824 25.0176 105.702 27.675 96.8661 31.069C86.23 35.1552 75.8384 39.8858 65.3484 44.3498C64.3959 44.7562 63.4561 45.2134 62.5799 45.7595C62.202 45.9944 61.7861 46.4961 61.7575 46.9025C61.5734 49.6805 61.5543 52.4745 61.3543 55.2494C61.0051 60.0594 60.6019 64.8663 60.1478 69.67C59.7764 73.6228 59.3033 77.5661 58.8175 82.0173C59.6748 81.0426 60.2272 80.3791 60.8114 79.7504C65.6278 74.5784 70.568 69.5779 77.3529 66.9205C80.4929 65.6886 83.7218 64.9742 87.065 64.5774C94.5674 63.6852 99.1203 67.9015 102.514 73.6926C106.058 79.7346 106.781 86.4591 105.845 93.2948C105.445 96.2316 104.315 99.0604 103.654 101.969C102.689 106.239 100.92 110.147 98.6599 113.859C96.3962 117.574 94.1674 121.317 91.8147 124.974C91.2528 125.851 90.1765 126.381 89.4812 127.197C88.5287 128.314 87.8207 129.654 86.8174 130.718C83.3662 134.375 80.023 138.176 76.2734 141.509C71.9713 145.332 67.3423 148.809 62.7164 152.247C60.7828 153.682 58.4905 154.635 56.1855 155.901C56.0141 153.746 59.2938 154.736 58.8207 152.555C56.6935 153.285 54.4901 153.444 52.4073 152.654C53.6456 152.104 54.8838 151.552 56.1252 151.009C56.3474 150.91 56.5856 150.847 56.8141 150.768C56.6649 150.59 56.5189 150.412 56.3665 150.237C56.2395 150.095 56.1061 149.961 55.7886 149.628C57.4968 148.517 59.1509 147.561 60.6749 146.424C63.9546 143.98 67.1708 141.456 70.3997 138.944C71.9809 137.715 73.7049 136.611 75.0606 135.163C77.264 132.807 79.3213 130.292 81.2549 127.705C84.5378 123.311 87.9159 118.958 90.821 114.319C94.9992 107.655 98.3075 100.53 99.4473 92.6471C100.197 87.4497 99.8696 82.1793 97.5106 77.4423C95.123 72.6449 91.8751 69.3874 85.3791 70.5431C80.0103 71.4987 75.5305 74.0514 71.3364 77.3343C66.2914 81.2808 62.2751 86.2083 58.3096 91.158C57.4206 92.2661 56.9443 93.8472 56.6776 95.2823C55.9696 99.0731 55.5283 102.908 54.8901 106.712C54.506 109.011 53.9472 111.281 53.4868 113.57C52.728 117.339 52.039 121.123 51.2167 124.876C50.5627 127.864 49.8197 130.835 49.0006 133.782C47.1433 140.452 45.3558 147.148 43.2667 153.749C41.9618 157.873 40.3552 161.928 38.5328 165.852C37.193 168.735 35.3833 171.421 33.6085 174.075C32.0051 176.472 29.5382 177.805 26.7284 177.183C23.9217 176.564 21.9818 174.627 21.0484 171.691C19.2228 165.95 19.3498 160.07 20.2769 154.32C21.0452 149.555 22.7756 144.932 24.2202 140.29C26.8427 131.874 31.0685 124.184 35.4436 116.599C38.6281 111.081 42.0792 105.712 45.505 100.34C47.4163 97.3428 49.6642 94.552 51.4644 91.4946C52.2137 90.2246 52.2581 88.5069 52.4994 86.9734C53.1725 82.7381 53.9027 78.509 54.379 74.2514C54.9441 69.1969 55.3029 64.117 55.6775 59.0434C55.8807 56.3066 55.9315 53.5603 56.0426 50.8203C56.0649 50.2615 56.0458 49.6996 56.0458 48.8265C52.6994 50.5187 49.5785 52.0395 46.5115 53.6619C39.2853 57.4877 31.9289 61.104 24.9282 65.3044C19.8356 68.3619 15.2224 72.2131 10.406 75.7278C9.73288 76.2167 9.12329 76.7914 8.15811 77.601C11.0251 77.7947 13.5206 77.9598 16.0193 78.128C16.0606 78.3662 16.1018 78.6043 16.1431 78.8424C15.0414 79.4869 13.7651 79.9568 12.8793 80.8236C11.7902 81.8903 10.5774 82.4396 9.16774 82.8143C6.68811 83.4746 1.4939 82.6333 0.442993 79.8139V77.909L0.449343 77.9217ZM50.1341 103.451C49.9309 103.375 49.7277 103.296 49.5245 103.22C48.0354 105.582 46.4575 107.896 45.07 110.319C41.784 116.065 38.4757 121.806 35.3991 127.667C33.4402 131.4 31.6908 135.274 30.1954 139.217C28.6492 143.297 27.284 147.478 26.2775 151.72C25.2615 155.997 25.2869 160.432 25.5505 164.826C25.633 166.223 25.8394 167.639 26.2235 168.976C26.4331 169.703 27.1411 170.287 27.6269 170.938C28.2174 170.497 29.0143 170.176 29.3667 169.592C30.9256 167.007 32.6655 164.467 33.7704 161.686C36.1961 155.574 38.4534 149.383 40.4473 143.119C42.4412 136.852 44.1556 130.489 45.7495 124.108C46.9401 119.332 47.7306 114.459 48.7307 109.636C49.1594 107.566 49.6673 105.515 50.1372 103.451H50.1341Z" fill="white"/>
<path d="M159.073 56.0338C161.181 59.6946 162.829 63.0917 163.162 67.3176C164.984 66.9906 166.74 66.6001 168.518 66.3715C177.764 65.1777 186.711 62.6917 195.686 60.2946C199.509 59.2723 203.382 58.4055 207.272 57.6721C209.37 57.2752 211.548 57.3038 213.936 57.4403C213.288 57.7896 212.653 58.1706 211.983 58.4722C211.802 58.5548 211.475 58.3166 211.285 58.3928C210.837 58.5738 210.427 58.8564 210.005 59.1008C210.497 59.1961 210.993 59.3898 211.482 59.3675C212.583 59.3199 213.679 59.0945 214.774 59.1104C215.076 59.1135 215.371 59.7104 215.539 60.2121C216.838 60.5613 218.365 58.4468 219.727 60.2819C219.203 60.8375 218.819 61.3551 218.33 61.736C217.749 62.1869 217.088 62.5425 216.431 62.8727C216.314 62.933 215.882 62.6949 215.866 62.5615C215.838 62.3456 216.034 62.1012 216.193 61.7424C214.475 61.8281 212.748 61.917 210.84 62.0154C211.199 62.5965 211.412 62.9362 211.828 63.6093C198.728 66.4667 185.86 69.2734 173.315 72.0102C173.871 73.3405 174.582 74.747 175.02 76.236C175.189 76.8139 174.944 77.8267 174.512 78.1791C174.09 78.522 173.112 78.4839 172.509 78.2585C169.645 77.1917 166.826 76.0042 163.867 74.8105C163.406 83.1669 162.965 91.1487 162.508 99.3814C163.968 98.9464 165.423 98.5464 166.858 98.0828C176.284 95.0349 185.698 91.9425 195.137 88.9295C197.905 88.0468 200.712 87.2245 203.557 86.6435C205.849 86.1768 208.218 86.0244 210.564 85.9069C212.04 85.8339 213.536 86.0688 215.018 86.218C215.285 86.2434 215.53 86.5133 215.73 87.015C215.126 86.9737 214.526 86.9356 213.79 86.8848C213.672 87.488 213.586 88.177 213.39 88.831C213.275 89.2088 213.059 89.6533 212.751 89.8597C209.272 92.1584 205.468 93.5553 201.385 94.5205C195.213 95.981 189.133 97.8352 183.05 99.6385C178.767 100.909 174.516 102.299 170.299 103.772C167.645 104.699 165.115 105.988 162.454 106.906C160.47 107.589 160.828 109.3 160.517 110.662C159.571 114.77 158.774 118.914 157.907 123.044C157.631 124.355 157.326 125.664 156.971 127.257C170.699 122.701 183.383 115.913 197.093 111.868C197.169 112.034 197.245 112.202 197.321 112.367C196.191 112.907 195.064 113.446 193.87 114.018C195.788 116.11 197.883 113.411 199.81 114.037C199.845 114.186 199.88 114.335 199.912 114.481C199.299 114.802 198.636 115.053 198.083 115.459C197.534 115.863 196.559 115.85 196.686 117.075C196.718 117.39 195.305 117.907 194.518 118.244C191.403 119.571 188.279 120.876 185.149 122.168C182.17 123.4 179.269 124.927 176.179 125.759C170.604 127.254 165.953 130.524 160.895 133.017C159.352 133.779 157.701 134.331 156.196 135.157C155.542 135.515 154.888 136.246 154.659 136.947C152.85 142.488 151.199 148.082 149.376 153.619C148.637 155.867 147.621 158.029 146.671 160.204C145.43 163.045 139.858 165.049 137.61 164.004C136.404 163.442 135.235 162.023 135.489 160.845C136.416 156.588 137.359 152.333 138.429 148.11C138.963 146.005 139.782 143.97 140.474 141.907C139.68 141.697 138.959 141.51 138.055 141.272C138.353 140.773 138.499 140.452 138.709 140.183C139.899 138.659 141.176 137.195 142.28 135.614C142.922 134.699 143.347 133.623 143.785 132.585C145.474 128.607 147.081 124.59 148.821 120.638C149.494 119.11 150.107 117.259 151.335 116.342C153.847 114.469 153.863 111.834 154.39 109.246C153.682 109.04 152.958 108.827 151.958 108.532C152.97 107.087 153.717 105.741 154.729 104.636C156.333 102.883 155.936 100.667 156.291 98.667C157.669 90.9551 157.777 83.1479 157.631 75.3375C157.628 75.0835 157.593 74.8295 157.565 74.493C156.256 74.3628 155.021 74.2072 153.777 74.1215C152.142 74.0072 150.859 73.0833 150.618 71.7784C150.332 70.2131 150.977 69.0765 152.789 68.4669C154.152 68.0097 155.606 67.8224 157.276 67.4605C157.26 63.8728 157.266 59.9867 159.066 56.0434L159.073 56.0338Z" fill="white"/>
<path d="M128.853 166.509C126.568 166.116 124.412 165.744 121.862 165.306C122.072 163.23 122.211 161.08 122.513 158.953C123.275 153.61 124.129 148.282 124.91 142.942C125.567 138.44 126.24 133.935 126.78 129.417C127.212 125.778 127.476 122.117 127.774 118.463C128.231 112.897 128.672 107.332 129.082 101.763C129.32 98.4926 129.479 95.2161 129.682 91.9459C129.79 90.2409 129.917 88.5391 130.035 86.8374C129.895 86.8024 129.758 86.7644 129.619 86.7294C129.003 88.2915 128.352 89.8409 127.78 91.4188C126.482 94.9938 124.872 98.5085 124.066 102.195C123.469 104.928 121.884 107.014 120.843 109.43C119.002 113.701 117.198 117.987 115.395 122.276C113.722 126.257 112.175 130.296 110.391 134.23C107.226 141.202 103.981 148.139 100.638 155.029C99.6471 157.074 98.8629 159.34 96.6881 160.629C95.126 161.553 93.6465 161.687 92.4559 160.804C91.4431 160.052 91.0208 158.185 91.5733 156.635C92.3733 154.394 93.0528 152.086 94.0783 149.949C96.0118 145.92 98.1708 141.996 100.212 138.017C101.609 135.293 102.949 132.538 104.349 129.81C107.121 124.403 110.09 119.092 112.645 113.586C114.75 109.056 116.351 104.293 118.217 99.6483C121.142 92.3808 123.939 85.0594 127.095 77.8967C129.609 72.185 131.819 66.3685 133.746 60.4504C134.511 58.0978 136.172 56.8691 138.108 55.8245C139.404 55.126 140.921 56.1325 140.731 57.6215C140.502 59.409 140.02 61.1775 139.518 62.9173C137.981 68.2227 137.029 73.601 136.94 79.1477C136.851 84.5832 136.584 90.0155 136.318 95.4478C136.054 100.813 135.756 106.179 135.359 111.535C134.905 117.653 134.337 123.765 133.8 129.88C133.498 133.322 133.203 136.767 132.822 140.202C132.124 146.504 131.292 152.794 130.66 159.102C130.393 161.76 130.273 164.401 128.857 166.516L128.853 166.509Z" fill="white"/>
</g>
<defs>
<clipPath id="clip0_42_36">
<rect width="316.225" height="180.337" fill="white" transform="translate(0.449219 0.453125)"/>
</clipPath>
</defs>
</svg>
