<svg width="12" height="9" viewBox="0 0 12 9" fill="none" xmlns="http://www.w3.org/2000/svg">
<path fill-rule="evenodd" clip-rule="evenodd" d="M0.516773 0.636869C0.195869 0.986603 0 1.45292 0 1.96498V6.54994C0 7.63517 0.87975 8.51493 1.96498 8.51493H9.16992C10.2552 8.51493 11.1349 7.63517 11.1349 6.54994V1.96498C11.1349 1.43873 10.928 0.960793 10.5912 0.608063L5.75064 5.58259C5.65635 5.67948 5.52631 5.73323 5.39113 5.73119C5.25595 5.72914 5.12759 5.67148 5.03629 5.57178L0.516773 0.636869ZM1.35436 0.0967272C1.54656 0.0339459 1.75181 0 1.96498 0H9.16992C9.36542 0 9.55425 0.0285503 9.73248 0.0817089L5.40939 4.52447L1.35436 0.0967272Z" fill="white"/>
</svg>
