<svg width="11" height="11" viewBox="0 0 11 11" fill="none" xmlns="http://www.w3.org/2000/svg">
<path fill-rule="evenodd" clip-rule="evenodd" d="M0.622923 5.53642C0.0690686 5.53642 -0.208303 4.89722 0.183331 4.52339L4.74005 0.173808C4.98283 -0.0579355 5.37645 -0.0579364 5.61923 0.173807L10.1759 4.52339C10.5676 4.89722 10.2902 5.53642 9.73636 5.53642H8.71283V9.77404C8.71283 10.0822 8.46304 10.332 8.1549 10.332H6.69368C6.69368 10.332 6.69368 10.3319 6.69368 10.3319V8.31274C6.69368 7.75515 6.24167 7.30314 5.68408 7.30314H4.67448C4.1169 7.30314 3.66489 7.75516 3.66489 8.31274V10.3319C3.66489 10.3319 3.66489 10.332 3.66489 10.332H2.20358C1.89544 10.332 1.64565 10.0822 1.64565 9.77404V5.53642H0.622923ZM5.886 10.332H4.47256C4.47256 10.332 4.47256 10.3319 4.47256 10.3319V8.31274C4.47256 8.20122 4.56297 8.11082 4.67448 8.11082H5.68408C5.7956 8.11082 5.886 8.20122 5.886 8.31274V10.3319C5.886 10.3319 5.886 10.332 5.886 10.332Z" fill="white"/>
</svg>
