<svg width="11" height="12" viewBox="0 0 11 12" fill="none" xmlns="http://www.w3.org/2000/svg">
<path d="M3.49165 3.85477L2.73713 4.62517C2.57757 4.78809 2.51901 5.02616 2.6075 5.23633C2.87152 5.86339 3.42862 6.85852 4.28819 7.5702C5.05528 8.20532 5.74056 8.57379 6.15034 8.74686C6.34899 8.83076 6.56852 8.76627 6.71782 8.61068L7.48031 7.81609C7.67482 7.61339 7.98164 7.56754 8.22691 7.70452L10.1324 8.76876C10.3277 8.87786 10.454 9.08493 10.4179 9.30575C10.2887 10.0976 9.72188 11.226 8.13329 11.303C6.2809 11.3929 4.11979 9.85762 3.30586 9.22612C2.49193 8.59463 0.883726 6.98361 0.176452 4.41273C-0.442729 2.16205 0.90055 1.19554 1.92583 0.904956C2.17006 0.835737 2.41734 0.966848 2.53865 1.18983L3.5929 3.12764C3.72255 3.36594 3.68147 3.66095 3.49165 3.85477Z" fill="white"/>
</svg>
