<svg width="259" height="151" viewBox="0 0 259 151" fill="none" xmlns="http://www.w3.org/2000/svg">
<g opacity="0.2">
<path d="M259.339 151C259.474 150.326 259.609 149.654 259.668 149.36C259.055 148.296 258.309 147.51 258.131 146.61C256.873 140.272 253.582 134.897 250.028 129.709C247.679 126.279 244.876 123.155 242.214 119.947C240.136 117.444 238.066 114.92 235.804 112.584C233.118 109.808 230.228 107.225 227.436 104.553C226.324 103.486 225.241 102.389 224.132 101.32C222.741 99.9794 221.334 98.6524 219.771 97.166C218.582 98.8753 217.353 100.401 216.387 102.079C214.086 106.076 211.97 110.177 209.664 114.171C208.297 116.539 207.965 119.18 207.352 121.741C206.895 123.652 206.028 125.308 204.923 126.866C204.111 128.013 202.36 128.323 201.062 127.667C199.854 127.06 199.289 125.295 199.692 123.771C200.672 120.093 201.669 116.417 202.519 112.706C203.35 109.078 203.952 105.397 204.754 101.76C205.911 96.5025 207.164 91.2659 208.361 86.016C208.427 85.724 208.369 85.4028 208.193 85.0207C207.14 87.3191 206.089 89.615 205.032 91.9135C202.073 98.3631 199.121 104.815 196.136 111.252C195.91 111.74 195.445 112.119 195.09 112.547C194.978 112.68 194.766 112.786 194.747 112.924C194.344 115.66 192.592 117.701 191.114 119.862C190.429 120.862 189.545 121.773 188.603 122.542C187.279 123.62 185.211 122.468 184.481 120.634C183.032 117.003 183.932 113.521 184.834 110.004C187.345 100.2 189.896 90.4033 192.34 80.5803C193.386 76.3708 194.018 72.0498 195.175 67.8749C196.462 63.2381 198.131 58.7074 199.652 54.1343C199.743 53.8663 199.979 53.6433 200.289 53.1948C200.353 53.983 200.395 54.5324 200.467 55.4163C200.932 54.275 201.417 53.6035 201.07 52.5339C200.886 51.9712 201.571 51.0688 201.975 50.3867C202.45 49.5851 203.164 49.9726 203.902 49.9195C205.807 49.7815 205.69 51.0449 206.152 52.0906C206.309 52.4463 207.052 52.5126 207.302 52.8683C207.989 53.845 208.833 54.8377 209.112 55.9471C209.733 58.4208 210.264 60.9581 210.423 63.4929C210.577 65.9187 210.248 68.3791 208.711 70.4733C207.896 71.5854 206.625 71.7154 205.964 70.5051C205.335 69.3532 204.894 68.0182 204.719 66.7176C204.393 64.2891 204.329 61.826 204.135 59.3763C204.117 59.1321 203.957 58.8985 203.559 58.5853C202.604 61.2952 201.579 63.9839 200.711 66.723C199.846 69.4567 199.079 72.2277 198.378 75.0065C197.747 77.5068 197.264 80.0415 196.714 82.5603C195.944 86.0823 195.254 89.6229 194.384 93.1185C193.309 97.4394 192.006 101.705 190.955 106.028C190.495 107.918 190.419 109.901 190.32 111.968C190.936 111.039 191.655 110.163 192.152 109.176C195.066 103.358 197.988 97.5429 200.791 91.6719C203.403 86.2044 205.794 80.6333 208.416 75.1711C211.408 68.9471 213.592 62.4949 215.062 55.7348C216.7 48.1917 218.706 40.7282 220.572 33.2356C221.902 27.8928 223.229 22.5473 224.636 17.2257C224.933 16.0977 225.671 15.0918 226.032 13.9744C226.356 12.9738 226.443 11.8989 226.624 10.8531C226.65 10.6965 226.541 10.4975 226.6 10.3674C228.02 7.29658 228.468 3.70286 231.314 1.40968C231.967 0.884156 232.832 0.626704 233.599 0.244507H234.395C234.698 0.472764 235.024 0.677133 235.303 0.934585C236.994 2.49522 238.392 4.14345 238.403 6.68878C238.419 10.3887 237.025 13.701 235.751 17.0187C233.546 22.757 231.085 28.3944 228.816 34.1088C226.114 40.914 223.497 47.7538 220.862 54.5855C220.034 56.7327 219.094 58.8614 218.507 61.0776C217.743 63.9679 217.273 66.9353 216.687 69.8708C216.363 71.4978 216.063 73.1274 215.718 74.9296C217.002 74.5341 218.027 74.3112 218.974 73.9077C224.774 71.4341 230.563 68.9392 236.335 66.4098C239.443 65.0482 242.519 63.6123 245.596 62.1817C247.958 61.0829 250.405 60.1168 252.621 58.7738C255.45 57.0565 258.03 54.9385 260.825 53.1549C262.152 52.3083 263.721 51.8411 265.181 51.2041V59.1666C265.051 59.1799 264.907 59.1613 264.793 59.2117C262.057 60.4751 259.328 61.7597 256.586 63.0151C254.739 63.8618 252.603 64.3289 251.071 65.5578C245.967 69.6531 241.017 73.9475 236.134 78.3083C233.835 80.36 231.773 82.685 229.703 84.9755C227.63 87.2661 225.679 89.6681 223.654 92.0462C223.999 92.4125 224.224 92.6779 224.477 92.9194C228.442 96.7201 232.439 100.492 236.37 104.327C238.331 106.241 240.173 108.279 242.079 110.248C248.677 117.064 254.986 124.116 259.867 132.31C261.765 135.495 263.455 138.794 264.419 142.409C264.687 143.412 264.923 144.42 265.175 145.426V145.692C264.838 146.324 264.387 146.926 264.196 147.6C264.021 148.216 264.241 148.946 264.061 149.559C263.922 150.029 263.431 150.392 263.1 150.804C262.994 150.716 262.887 150.629 262.781 150.541C262.922 150.026 263.065 149.514 263.206 148.999C263.118 148.943 263.031 148.885 262.946 148.829C262.378 149.487 261.812 150.145 261.244 150.804C261.165 150.745 261.085 150.684 261.008 150.626C261.037 150.299 261.067 149.976 261.098 149.631C260.647 150.135 260.26 150.567 259.87 150.997H259.339V151ZM234.883 72.9974C234.4 73.2203 233.554 73.6317 232.688 74.0033C230.085 75.1207 227.486 76.2434 224.861 77.3103C224.19 77.5837 223.763 78.587 222.696 77.9553C222.467 77.8199 221.7 78.7569 221.106 79.0488C219.391 79.8875 217.65 80.6785 215.893 81.4243C214.953 81.8224 214.754 82.2895 215.458 83.0805C216.947 84.7552 218.473 86.4008 219.872 88.1472C220.424 88.8373 220.718 88.6993 221.177 88.1844C222.027 87.2316 222.865 86.2681 223.76 85.3604C223.954 85.164 224.362 85.1799 224.673 85.0976C225.267 84.7181 225.737 84.0997 226.202 83.4759C227.542 81.6791 229.071 80.0521 230.3 78.1384C231.582 76.1399 233.479 74.5368 234.886 73L234.883 72.9974ZM216.644 94.0156C215.513 92.8026 214.433 91.6401 213.35 90.4802C213.188 90.5731 213.024 90.6634 212.862 90.7563C212.204 94.5225 211.546 98.2861 210.887 102.052C210.991 102.087 211.097 102.121 211.201 102.158C212.997 99.4698 214.797 96.7785 216.644 94.0156ZM227.046 27.6406C229.711 20.8274 233.169 14.2398 233.482 6.68082C229.883 13.2074 229.251 20.6576 227.046 27.6406Z" fill="white"/>
<path d="M0.82469 65.0055C2.18627 63.2591 3.33817 61.2791 4.95189 59.8114C8.52172 56.5653 12.625 54.028 16.869 51.7162C19.709 50.1715 22.4135 48.3853 25.2561 46.8432C28.2447 45.2242 31.3102 43.7511 34.3625 42.2515C38.3942 40.2662 42.4524 38.334 46.4681 36.3195C46.8529 36.1257 47.2643 35.4994 47.2511 35.0853C47.0998 29.9761 46.8636 24.8695 46.6751 19.7603C46.6486 19.0277 46.7149 18.2846 46.8078 17.5547C46.9511 16.432 47.1449 15.3172 47.3333 14.2025C47.3891 13.876 47.5085 13.5575 47.5988 13.2364C47.758 13.2496 47.9173 13.2602 48.0765 13.2735C48.188 14.582 48.2968 15.8879 48.4083 17.1963C48.8197 15.5534 48.2358 13.7141 49.6318 12.2437C51.3623 19.171 51.7472 26.2443 51.8799 33.607C53.5971 32.8797 55.0091 32.2586 56.4371 31.68C60.3015 30.1088 64.1819 28.5826 68.0357 26.9902C72.2478 25.249 76.3936 23.3434 80.6456 21.7137C84.4835 20.2433 88.4381 19.0728 92.3238 17.7245C94.609 16.9309 96.8253 15.917 99.1397 15.2296C102.441 14.2502 105.791 13.4062 109.151 12.6418C112.1 11.973 115.083 11.4607 118.064 10.9432C119.362 10.7176 120.683 10.6406 122 10.5291C123.46 10.407 125.039 11.7341 124.702 13.0638C124.399 14.2582 123.791 15.6384 122.865 16.347C121.408 17.4644 119.622 18.2129 117.886 18.8924C115.954 19.6488 113.886 20.0602 111.949 20.806C110.72 21.2784 109.653 20.8723 108.92 20.2141C108.318 19.67 108.254 18.5261 107.872 17.414C106.842 17.6529 105.372 17.8811 103.973 18.335C96.4378 20.7795 88.8124 23.001 81.4259 25.8383C72.5345 29.2541 63.8475 33.2088 55.0782 36.9406C54.2819 37.2803 53.4963 37.6625 52.7637 38.119C52.4479 38.3154 52.1002 38.7348 52.0763 39.0745C51.9224 41.3969 51.9064 43.7325 51.7392 46.0523C51.4473 50.0733 51.1102 54.0917 50.7307 58.1074C50.4201 61.4118 50.0247 64.7083 49.6186 68.4294C50.3352 67.6146 50.797 67.0598 51.2854 66.5343C55.3117 62.2107 59.4416 58.0304 65.1135 55.8089C67.7384 54.7791 70.4377 54.1819 73.2325 53.8501C79.5043 53.1043 83.3103 56.629 86.1476 61.4702C89.1096 66.521 89.7148 72.1425 88.9318 77.8569C88.5974 80.312 87.6525 82.6769 87.1004 85.1081C86.2936 88.6779 84.8152 91.9451 82.9255 95.0478C81.0331 98.1532 79.1699 101.282 77.2031 104.34C76.7333 105.073 75.8336 105.516 75.2523 106.198C74.4561 107.132 73.8642 108.252 73.0255 109.141C70.1404 112.199 67.3456 115.376 64.2111 118.163C60.6147 121.358 56.745 124.265 52.8779 127.139C51.2615 128.339 49.3452 129.135 47.4183 130.194C47.275 128.392 50.0167 129.22 49.6212 127.397C47.8429 128.007 46.001 128.14 44.2598 127.479C45.295 127.02 46.3301 126.558 47.3678 126.104C47.5536 126.022 47.7527 125.969 47.9438 125.902C47.8191 125.754 47.697 125.605 47.5696 125.459C47.4634 125.34 47.3519 125.228 47.0865 124.949C48.5144 124.021 49.8973 123.222 51.1712 122.271C53.913 120.228 56.6016 118.118 59.3009 116.018C60.6227 114.991 62.0639 114.067 63.1972 112.857C65.0392 110.888 66.7591 108.786 68.3754 106.623C71.1198 102.949 73.9438 99.3104 76.3724 95.4327C79.8652 89.8616 82.6309 83.9057 83.5837 77.3155C84.2101 72.9706 83.9367 68.5647 81.9647 64.6048C79.9688 60.5943 77.2536 57.8712 71.8232 58.8373C67.335 59.6362 63.59 61.7701 60.0839 64.5145C55.8664 67.8136 52.5089 71.9329 49.1939 76.0707C48.4507 76.997 48.0526 78.3187 47.8297 79.5184C47.2378 82.6875 46.8689 85.8937 46.3354 89.0734C46.0142 90.995 45.5471 92.8927 45.1623 94.8063C44.5279 97.9568 43.952 101.121 43.2645 104.258C42.7178 106.755 42.0967 109.24 41.4119 111.703C39.8593 117.279 38.365 122.877 36.6185 128.395C35.5277 131.842 34.1847 135.232 32.6612 138.512C31.5412 140.922 30.0283 143.168 28.5446 145.386C27.2043 147.39 25.142 148.505 22.7931 147.985C20.4468 147.467 18.8251 145.848 18.0448 143.393C16.5187 138.594 16.6248 133.679 17.3999 128.872C18.0422 124.888 19.4887 121.024 20.6963 117.144C22.8886 110.107 26.4213 103.679 30.0787 97.3384C32.7408 92.7255 35.6259 88.2373 38.4897 83.7465C40.0875 81.241 41.9667 78.908 43.4716 76.352C44.0979 75.2904 44.1351 73.8545 44.3368 72.5725C44.8995 69.0319 45.5099 65.4966 45.9081 61.9373C46.3805 57.7119 46.6804 53.4653 46.9936 49.224C47.1635 46.9361 47.2059 44.6403 47.2988 42.3497C47.3174 41.8826 47.3015 41.4128 47.3015 40.6829C44.504 42.0976 41.895 43.3689 39.3311 44.7252C33.2902 47.9234 27.1406 50.9465 21.2882 54.4579C17.0309 57.0139 13.1744 60.2334 9.1481 63.1715C8.58542 63.5803 8.07583 64.0607 7.26896 64.7375C9.66566 64.8994 11.7518 65.0374 13.8406 65.1781C13.8751 65.3771 13.9096 65.5762 13.9441 65.7752C13.0232 66.314 11.9562 66.7068 11.2157 67.4314C10.3053 68.3232 9.29142 68.7824 8.11298 69.0956C6.04009 69.6476 1.69791 68.9443 0.819382 66.5874V64.9949L0.82469 65.0055ZM42.3595 86.3475C42.1896 86.2838 42.0197 86.2175 41.8499 86.1538C40.6051 88.1285 39.286 90.0634 38.1261 92.0885C35.3791 96.8925 32.6134 101.691 30.0416 106.591C28.404 109.712 26.9415 112.95 25.6914 116.247C24.3988 119.657 23.2576 123.153 22.4162 126.699C21.5669 130.274 21.5881 133.982 21.8084 137.655C21.8774 138.823 22.0499 140.006 22.3711 141.124C22.5462 141.732 23.1381 142.22 23.5442 142.764C24.0379 142.395 24.7041 142.127 24.9987 141.639C26.3019 139.478 27.7563 137.355 28.68 135.03C30.7078 129.921 32.5949 124.745 34.2617 119.508C35.9285 114.269 37.3617 108.95 38.6941 103.615C39.6894 99.6236 40.3503 95.5495 41.1863 91.5178C41.5446 89.7873 41.9693 88.0727 42.3621 86.3475H42.3595Z" fill="white"/>
<path d="M133.429 46.708C135.191 49.7682 136.568 52.6082 136.847 56.1409C138.371 55.8675 139.838 55.541 141.325 55.3499C149.054 54.352 156.533 52.2738 164.036 50.2699C167.232 49.4152 170.47 48.6907 173.721 48.0775C175.476 47.7458 177.296 47.7697 179.292 47.8838C178.751 48.1758 178.22 48.4943 177.66 48.7464C177.509 48.8154 177.235 48.6163 177.076 48.68C176.702 48.8313 176.359 49.0675 176.006 49.2719C176.418 49.3515 176.832 49.5134 177.241 49.4949C178.162 49.4551 179.077 49.2666 179.993 49.2799C180.245 49.2825 180.492 49.7815 180.633 50.2009C181.718 50.4928 182.995 48.7252 184.133 50.2593C183.695 50.7237 183.374 51.1564 182.966 51.4749C182.48 51.8517 181.928 52.149 181.378 52.425C181.28 52.4755 180.919 52.2764 180.906 52.1649C180.882 51.9845 181.047 51.7801 181.179 51.4802C179.743 51.5518 178.3 51.6261 176.704 51.7084C177.004 52.1941 177.182 52.4781 177.53 53.0408C166.579 55.4295 155.822 57.7758 145.335 60.0637C145.8 61.1758 146.394 62.3516 146.76 63.5964C146.901 64.0794 146.697 64.9261 146.336 65.2207C145.983 65.5073 145.165 65.4755 144.661 65.287C142.267 64.3953 139.91 63.4026 137.436 62.4046C137.051 69.3904 136.683 76.0629 136.3 82.9451C137.521 82.5815 138.737 82.2471 139.937 81.8596C147.817 79.3116 155.686 76.7264 163.577 74.2076C165.891 73.4698 168.238 72.7824 170.616 72.2967C172.532 71.9065 174.512 71.7791 176.474 71.6809C177.708 71.6198 178.958 71.8163 180.197 71.941C180.42 71.9622 180.625 72.1878 180.792 72.6072C180.288 72.5727 179.786 72.5408 179.17 72.4984C179.072 73.0027 179 73.5786 178.836 74.1254C178.74 74.4412 178.56 74.8128 178.302 74.9853C175.393 76.9069 172.214 78.0747 168.8 78.8816C163.641 80.1025 158.558 81.6525 153.473 83.1601C149.892 84.2217 146.338 85.3843 142.814 86.6158C140.595 87.3908 138.479 88.4684 136.255 89.2354C134.596 89.8061 134.896 91.2367 134.636 92.3753C133.845 95.8097 133.179 99.2734 132.454 102.726C132.224 103.823 131.969 104.916 131.672 106.249C143.148 102.44 153.751 96.7653 165.212 93.3839C165.276 93.5219 165.339 93.6625 165.403 93.8006C164.458 94.2518 163.516 94.703 162.518 95.1807C164.121 96.9298 165.873 94.6738 167.484 95.1966C167.513 95.3214 167.542 95.4461 167.569 95.5682C167.057 95.8363 166.502 96.046 166.04 96.3857C165.581 96.7228 164.766 96.7122 164.872 97.7367C164.899 97.9994 163.718 98.4321 163.059 98.7134C160.456 99.8228 157.844 100.914 155.227 101.994C152.737 103.024 150.312 104.3 147.729 104.996C143.068 106.246 139.18 108.98 134.952 111.063C133.662 111.7 132.282 112.162 131.024 112.852C130.477 113.152 129.93 113.762 129.739 114.349C128.226 118.98 126.846 123.657 125.323 128.286C124.704 130.165 123.855 131.973 123.061 133.791C122.024 136.166 117.366 137.841 115.487 136.968C114.478 136.498 113.501 135.311 113.714 134.327C114.489 130.768 115.277 127.211 116.171 123.681C116.617 121.921 117.302 120.22 117.881 118.495C117.217 118.32 116.615 118.163 115.858 117.964C116.108 117.547 116.23 117.279 116.405 117.054C117.4 115.78 118.467 114.556 119.391 113.234C119.927 112.47 120.283 111.57 120.649 110.702C122.061 107.377 123.404 104.019 124.858 100.715C125.421 99.438 125.933 97.8906 126.96 97.1236C129.06 95.5576 129.073 93.3547 129.514 91.1915C128.922 91.019 128.317 90.8412 127.481 90.5944C128.327 89.3867 128.951 88.2614 129.798 87.3377C131.138 85.8726 130.806 84.02 131.104 82.3479C132.255 75.901 132.346 69.3744 132.224 62.8452C132.221 62.6329 132.192 62.4206 132.168 62.1392C131.074 62.0304 130.042 61.9004 129.001 61.8287C127.635 61.7331 126.562 60.9608 126.361 59.8699C126.122 58.5614 126.66 57.6112 128.176 57.1017C129.315 56.7195 130.53 56.5629 131.926 56.2603C131.913 53.2611 131.918 50.0124 133.423 46.716L133.429 46.708Z" fill="white"/>
<path d="M108.166 139.062C106.255 138.733 104.453 138.422 102.322 138.056C102.497 136.32 102.614 134.523 102.866 132.745C103.503 128.278 104.217 123.824 104.87 119.36C105.419 115.596 105.982 111.83 106.433 108.053C106.794 105.012 107.014 101.951 107.264 98.8964C107.646 94.2437 108.015 89.591 108.357 84.9356C108.557 82.2018 108.689 79.4627 108.859 76.729C108.949 75.3037 109.056 73.8811 109.154 72.4584C109.037 72.4292 108.923 72.3974 108.806 72.3682C108.291 73.674 107.747 74.9693 107.269 76.2884C106.184 79.277 104.838 82.2151 104.164 85.2966C103.665 87.5818 102.341 89.3256 101.47 91.3454C99.9306 94.9152 98.423 98.4983 96.9155 102.084C95.5167 105.412 94.2241 108.788 92.7325 112.077C90.0863 117.905 87.3738 123.705 84.579 129.464C83.7509 131.174 83.0953 133.069 81.2772 134.146C79.9714 134.919 78.7345 135.03 77.7392 134.292C76.8926 133.663 76.5396 132.102 77.0014 130.807C77.6702 128.933 78.2382 127.004 79.0955 125.218C80.7119 121.849 82.5167 118.569 84.2233 115.243C85.3911 112.966 86.5112 110.662 87.6817 108.382C89.9987 103.862 92.4804 99.4219 94.617 94.8196C96.3767 91.0322 97.7143 87.051 99.275 83.1679C101.719 77.0926 104.058 70.9721 106.696 64.9844C108.798 60.2095 110.645 55.3471 112.256 50.3998C112.896 48.4331 114.284 47.4059 115.903 46.5327C116.986 45.9488 118.255 46.7902 118.096 48.035C117.904 49.5293 117.501 51.0076 117.082 52.4621C115.797 56.8972 115.001 61.3933 114.927 66.0301C114.852 70.574 114.629 75.1153 114.406 79.6565C114.186 84.142 113.937 88.6275 113.605 93.1051C113.225 98.2196 112.75 103.329 112.302 108.441C112.049 111.318 111.803 114.198 111.484 117.069C110.9 122.338 110.205 127.596 109.677 132.87C109.454 135.091 109.353 137.299 108.169 139.067L108.166 139.062Z" fill="white"/>
</g>
</svg>
